<svg width="73" height="18" viewBox="0 0 73 18" fill="none" xmlns="http://www.w3.org/2000/svg">
<path d="M13.368 2.11206C13.56 2.24006 13.672 2.40806 13.704 2.61606C13.736 2.80806 13.688 3.00006 13.56 3.19206C13.448 3.33606 13.304 3.41606 13.128 3.43206C12.952 3.44806 12.784 3.41606 12.624 3.33606C12.016 2.93606 11.36 2.62406 10.656 2.40006C9.968 2.17606 9.224 2.06406 8.424 2.06406C7.448 2.06406 6.536 2.24006 5.688 2.59206C4.856 2.92806 4.128 3.42406 3.504 4.08006C2.88 4.72006 2.392 5.48006 2.04 6.36006C1.704 7.24006 1.536 8.20806 1.536 9.26406C1.536 10.3521 1.712 11.3441 2.064 12.2401C2.416 13.1201 2.904 13.8801 3.528 14.5201C4.168 15.1601 4.904 15.6481 5.736 15.9841C6.568 16.3201 7.464 16.4881 8.424 16.4881C9.208 16.4881 9.944 16.3761 10.632 16.1521C11.336 15.9281 11.992 15.6241 12.6 15.2401C12.76 15.1441 12.928 15.1121 13.104 15.1441C13.296 15.1601 13.448 15.2481 13.56 15.4081C13.704 15.5841 13.752 15.7761 13.704 15.9841C13.672 16.1761 13.568 16.3281 13.392 16.4401C12.992 16.6961 12.52 16.9361 11.976 17.1601C11.432 17.3841 10.856 17.5601 10.248 17.6881C9.64 17.8321 9.032 17.9041 8.424 17.9041C7.272 17.9041 6.192 17.6961 5.184 17.2801C4.176 16.8641 3.28 16.2801 2.496 15.5281C1.712 14.7601 1.096 13.8481 0.648 12.7921C0.216 11.7361 -4.17233e-07 10.5601 -4.17233e-07 9.26406C-4.17233e-07 8.01606 0.216 6.87206 0.648 5.83206C1.08 4.77606 1.68 3.86406 2.448 3.09606C3.216 2.32806 4.112 1.72806 5.136 1.29606C6.16 0.864061 7.256 0.648061 8.424 0.648061C9.336 0.648061 10.216 0.776062 11.064 1.03206C11.912 1.28806 12.68 1.64806 13.368 2.11206ZM27.8477 11.5201C27.8477 12.7361 27.5837 13.8321 27.0557 14.8081C26.5277 15.7681 25.8077 16.5281 24.8957 17.0881C23.9837 17.6321 22.9437 17.9041 21.7757 17.9041C20.6397 17.9041 19.6077 17.6321 18.6797 17.0881C17.7677 16.5281 17.0397 15.7681 16.4957 14.8081C15.9677 13.8321 15.7037 12.7361 15.7037 11.5201C15.7037 10.2881 15.9677 9.19206 16.4957 8.23206C17.0397 7.27206 17.7677 6.51206 18.6797 5.95206C19.6077 5.39206 20.6397 5.11206 21.7757 5.11206C22.9437 5.11206 23.9837 5.39206 24.8957 5.95206C25.8077 6.51206 26.5277 7.27206 27.0557 8.23206C27.5837 9.19206 27.8477 10.2881 27.8477 11.5201ZM26.4077 11.5201C26.4077 10.5441 26.2077 9.68006 25.8077 8.92806C25.4077 8.16006 24.8557 7.56006 24.1517 7.12806C23.4637 6.68006 22.6717 6.45606 21.7757 6.45606C20.9117 6.45606 20.1277 6.68006 19.4237 7.12806C18.7197 7.56006 18.1597 8.16006 17.7437 8.92806C17.3437 9.68006 17.1437 10.5441 17.1437 11.5201C17.1437 12.4961 17.3437 13.3601 17.7437 14.1121C18.1597 14.8641 18.7197 15.4641 19.4237 15.9121C20.1277 16.3441 20.9117 16.5601 21.7757 16.5601C22.6717 16.5601 23.4637 16.3441 24.1517 15.9121C24.8557 15.4641 25.4077 14.8641 25.8077 14.1121C26.2077 13.3601 26.4077 12.4961 26.4077 11.5201ZM35.3481 6.10352e-05C35.5881 6.10352e-05 35.8441 0.0240612 36.1161 0.0720615C36.4041 0.120062 36.6521 0.208062 36.8601 0.336061C37.0681 0.448061 37.1721 0.624062 37.1721 0.864061C37.1721 1.04006 37.1081 1.20006 36.9801 1.34406C36.8521 1.47206 36.7081 1.53606 36.5481 1.53606C36.3881 1.53606 36.1881 1.49606 35.9481 1.41606C35.7081 1.32006 35.4521 1.27206 35.1801 1.27206C34.8441 1.27206 34.5561 1.35206 34.3161 1.51206C34.0761 1.65606 33.8921 1.87206 33.7641 2.16006C33.6361 2.43206 33.5721 2.76806 33.5721 3.16806V16.9441C33.5721 17.1361 33.5001 17.3041 33.3561 17.4481C33.2281 17.5921 33.0601 17.6641 32.8521 17.6641C32.6441 17.6641 32.4681 17.5921 32.3241 17.4481C32.1961 17.3041 32.1321 17.1361 32.1321 16.9441V3.16806C32.1321 2.14406 32.4281 1.36006 33.0201 0.816062C33.6281 0.272061 34.4041 6.10352e-05 35.3481 6.10352e-05ZM36.2601 5.64006C36.4521 5.64006 36.6121 5.70406 36.7401 5.83206C36.8681 5.96006 36.9321 6.12006 36.9321 6.31206C36.9321 6.50406 36.8681 6.66406 36.7401 6.79206C36.6121 6.92006 36.4521 6.98406 36.2601 6.98406H30.3801C30.2041 6.98406 30.0441 6.92006 29.9001 6.79206C29.7721 6.64806 29.7081 6.48806 29.7081 6.31206C29.7081 6.10406 29.7721 5.94406 29.9001 5.83206C30.0441 5.70406 30.2041 5.64006 30.3801 5.64006H36.2601ZM43.9881 6.10352e-05C44.2281 6.10352e-05 44.4841 0.0240612 44.7561 0.0720615C45.0441 0.120062 45.2921 0.208062 45.5001 0.336061C45.7081 0.448061 45.8121 0.624062 45.8121 0.864061C45.8121 1.04006 45.7481 1.20006 45.6201 1.34406C45.4921 1.47206 45.3481 1.53606 45.1881 1.53606C45.0281 1.53606 44.8281 1.49606 44.5881 1.41606C44.3481 1.32006 44.0921 1.27206 43.8201 1.27206C43.4841 1.27206 43.1961 1.35206 42.9561 1.51206C42.7161 1.65606 42.5321 1.87206 42.4041 2.16006C42.2761 2.43206 42.2121 2.76806 42.2121 3.16806V16.9441C42.2121 17.1361 42.1401 17.3041 41.9961 17.4481C41.8681 17.5921 41.7001 17.6641 41.4921 17.6641C41.2841 17.6641 41.1081 17.5921 40.9641 17.4481C40.8361 17.3041 40.7721 17.1361 40.7721 16.9441V3.16806C40.7721 2.14406 41.0681 1.36006 41.6601 0.816062C42.2681 0.272061 43.0441 6.10352e-05 43.9881 6.10352e-05ZM44.9001 5.64006C45.0921 5.64006 45.2521 5.70406 45.3801 5.83206C45.5081 5.96006 45.5721 6.12006 45.5721 6.31206C45.5721 6.50406 45.5081 6.66406 45.3801 6.79206C45.2521 6.92006 45.0921 6.98406 44.9001 6.98406H39.0201C38.8441 6.98406 38.6841 6.92006 38.5401 6.79206C38.4121 6.64806 38.3481 6.48806 38.3481 6.31206C38.3481 6.10406 38.4121 5.94406 38.5401 5.83206C38.6841 5.70406 38.8441 5.64006 39.0201 5.64006H44.9001ZM53.7255 17.9041C52.4935 17.9041 51.4055 17.6401 50.4615 17.1121C49.5175 16.5841 48.7815 15.8481 48.2535 14.9041C47.7255 13.9601 47.4615 12.8561 47.4615 11.5921C47.4615 10.2321 47.7255 9.07206 48.2535 8.11206C48.7975 7.15206 49.4935 6.41606 50.3415 5.90406C51.2055 5.37606 52.1175 5.11206 53.0775 5.11206C53.7815 5.11206 54.4615 5.24006 55.1175 5.49606C55.7895 5.73606 56.3815 6.10406 56.8935 6.60006C57.4215 7.08006 57.8375 7.67206 58.1415 8.37606C58.4615 9.08006 58.6375 9.89606 58.6695 10.8241C58.6535 11.0161 58.5735 11.1841 58.4295 11.3281C58.2855 11.4561 58.1175 11.5201 57.9255 11.5201H48.3015L48.0135 10.2241H57.4695L57.1575 10.5121V10.0321C57.0935 9.28006 56.8535 8.64006 56.4375 8.11206C56.0215 7.58406 55.5175 7.18406 54.9255 6.91206C54.3335 6.64006 53.7175 6.50406 53.0775 6.50406C52.5975 6.50406 52.1015 6.60006 51.5895 6.79206C51.0935 6.98406 50.6375 7.28806 50.2215 7.70406C49.8215 8.10406 49.4935 8.62406 49.2375 9.26406C48.9815 9.88806 48.8535 10.6321 48.8535 11.4961C48.8535 12.4401 49.0455 13.2961 49.4295 14.0641C49.8135 14.8321 50.3655 15.4401 51.0855 15.8881C51.8215 16.3361 52.6935 16.5601 53.7015 16.5601C54.2615 16.5601 54.7655 16.4801 55.2135 16.3201C55.6615 16.1601 56.0535 15.9521 56.3895 15.6961C56.7255 15.4241 57.0055 15.1441 57.2295 14.8561C57.4055 14.7121 57.5815 14.6401 57.7575 14.6401C57.9175 14.6401 58.0535 14.7041 58.1655 14.8321C58.2935 14.9601 58.3575 15.1041 58.3575 15.2641C58.3575 15.4561 58.2775 15.6241 58.1175 15.7681C57.6375 16.3441 57.0135 16.8481 56.2455 17.2801C55.4775 17.6961 54.6375 17.9041 53.7255 17.9041ZM67.2958 17.9041C66.0638 17.9041 64.9758 17.6401 64.0318 17.1121C63.0878 16.5841 62.3518 15.8481 61.8238 14.9041C61.2958 13.9601 61.0318 12.8561 61.0318 11.5921C61.0318 10.2321 61.2958 9.07206 61.8238 8.11206C62.3678 7.15206 63.0638 6.41606 63.9118 5.90406C64.7758 5.37606 65.6878 5.11206 66.6478 5.11206C67.3518 5.11206 68.0318 5.24006 68.6878 5.49606C69.3598 5.73606 69.9518 6.10406 70.4638 6.60006C70.9918 7.08006 71.4078 7.67206 71.7118 8.37606C72.0318 9.08006 72.2078 9.89606 72.2398 10.8241C72.2238 11.0161 72.1438 11.1841 71.9998 11.3281C71.8558 11.4561 71.6878 11.5201 71.4958 11.5201H61.8718L61.5838 10.2241H71.0398L70.7278 10.5121V10.0321C70.6638 9.28006 70.4238 8.64006 70.0078 8.11206C69.5918 7.58406 69.0878 7.18406 68.4958 6.91206C67.9038 6.64006 67.2878 6.50406 66.6478 6.50406C66.1678 6.50406 65.6718 6.60006 65.1598 6.79206C64.6638 6.98406 64.2078 7.28806 63.7918 7.70406C63.3918 8.10406 63.0638 8.62406 62.8078 9.26406C62.5518 9.88806 62.4238 10.6321 62.4238 11.4961C62.4238 12.4401 62.6158 13.2961 62.9998 14.0641C63.3838 14.8321 63.9358 15.4401 64.6558 15.8881C65.3918 16.3361 66.2638 16.5601 67.2718 16.5601C67.8318 16.5601 68.3358 16.4801 68.7838 16.3201C69.2318 16.1601 69.6238 15.9521 69.9598 15.6961C70.2958 15.4241 70.5758 15.1441 70.7998 14.8561C70.9758 14.7121 71.1518 14.6401 71.3278 14.6401C71.4878 14.6401 71.6238 14.7041 71.7358 14.8321C71.8638 14.9601 71.9278 15.1041 71.9278 15.2641C71.9278 15.4561 71.8478 15.6241 71.6878 15.7681C71.2078 16.3441 70.5838 16.8481 69.8158 17.2801C69.0478 17.6961 68.2078 17.9041 67.2958 17.9041Z" fill="#6F4336"/>
</svg>
